<svg xmlns="http://www.w3.org/2000/svg" viewBox="0 0 342.29 170.42"><defs><style>.cls-1{fill:none;stroke:#231f20;stroke-miterlimit:10;}.cls-2{font-size:60px;fill:#231f20;font-family:Abolition-Regular, Abolition;letter-spacing:0.04em;}.cls-3{letter-spacing:0.03em;}.cls-4{letter-spacing:0.03em;}.cls-5{letter-spacing:0.03em;}.cls-6{letter-spacing:0.03em;}</style></defs><g id="Layer_2" data-name="Layer 2"><g id="Layer_1-2" data-name="Layer 1"><circle class="cls-1" cx="80.5" cy="80.54" r="80"/><line class="cls-1" x1="3.21" y1="59.43" x2="76.76" y2="0.39"/><line class="cls-1" x1="42.77" y1="9.64" x2="152" y2="43.9"/><line class="cls-1" x1="123.52" y1="35.14" x2="3.21" y2="59.43"/><line class="cls-1" x1="42.68" y1="51.29" x2="1.51" y2="96.11"/><line class="cls-1" x1="11.83" y1="84.84" x2="18.4" y2="131.44"/><line class="cls-1" x1="71.57" y1="45.82" x2="159.67" y2="83.71"/><line class="cls-1" x1="127.42" y1="70.22" x2="25.32" y2="70.09"/><line class="cls-1" x1="110.53" y1="70.26" x2="15.03" y2="107.61"/><line class="cls-1" x1="116.29" y1="70.58" x2="147.32" y2="125.38"/><line class="cls-1" x1="137.53" y1="108.01" x2="58.4" y2="90.48"/><line class="cls-1" x1="125.78" y1="105.79" x2="15.03" y2="107.61"/><line class="cls-1" x1="51.94" y1="107" x2="146.35" y2="123.95"/><line class="cls-1" x1="107.97" y1="116.95" x2="18.05" y2="129.4"/><line class="cls-1" x1="26.57" y1="128.17" x2="136.37" y2="138.17"/><line class="cls-1" x1="116.53" y1="136.22" x2="93.1" y2="159.66"/><line class="cls-1" x1="93.1" y1="159.66" x2="18.89" y2="129.52"/><text class="cls-2" transform="translate(190.73 88.4)">WEBSITE<tspan class="cls-3"><tspan x="0" y="72">T</tspan><tspan class="cls-4" x="19.86" y="72">E</tspan><tspan class="cls-5" x="39" y="72">S</tspan><tspan class="cls-6" x="60.06" y="72">T</tspan></tspan></text></g></g></svg>